<svg xmlns="http://www.w3.org/2000/svg" xmlns:xlink="http://www.w3.org/1999/xlink" version="1.1" width="256" height="256" viewBox="0 0 256 256" xml:space="preserve">

<defs>
</defs>
<g style="stroke: none; stroke-width: 0; stroke-dasharray: none; stroke-linecap: butt; stroke-linejoin: miter; stroke-miterlimit: 10; fill: none; fill-rule: nonzero; opacity: 1;" transform="translate(1.4065934065934016 1.4065934065934016) scale(2.81 2.81)" >
	<path d="M 54.51 49.323 H 29.232 c -0.552 0 -1 -0.447 -1 -1 V 23.044 c 0 -0.552 0.448 -1 1 -1 H 54.51 c 0.553 0 1 0.448 1 1 v 25.279 C 55.51 48.875 55.063 49.323 54.51 49.323 z M 30.232 47.323 h 23.278 V 24.044 H 30.232 V 47.323 z" style="stroke: none; stroke-width: 1; stroke-dasharray: none; stroke-linecap: butt; stroke-linejoin: miter; stroke-miterlimit: 10; fill: rgb(255,255,255); fill-rule: nonzero; opacity: 1;" transform=" matrix(1 0 0 1 0 0) " stroke-linecap="round" />
	<path d="M 41.872 24.044 c -0.552 0 -1 -0.448 -1 -1 V 9.287 c 0 -0.552 0.448 -1 1 -1 c 0.552 0 1 0.448 1 1 v 13.757 C 42.871 23.596 42.424 24.044 41.872 24.044 z" style="stroke: none; stroke-width: 1; stroke-dasharray: none; stroke-linecap: butt; stroke-linejoin: miter; stroke-miterlimit: 10; fill: rgb(255,255,255); fill-rule: nonzero; opacity: 1;" transform=" matrix(1 0 0 1 0 0) " stroke-linecap="round" />
	<path d="M 50.735 24.044 c -0.553 0 -1 -0.448 -1 -1 V 12.83 c 0 -0.552 0.447 -1 1 -1 s 1 0.448 1 1 v 10.214 C 51.734 23.596 51.287 24.044 50.735 24.044 z" style="stroke: none; stroke-width: 1; stroke-dasharray: none; stroke-linecap: butt; stroke-linejoin: miter; stroke-miterlimit: 10; fill: rgb(255,255,255); fill-rule: nonzero; opacity: 1;" transform=" matrix(1 0 0 1 0 0) " stroke-linecap="round" />
	<path d="M 33.008 24.044 c -0.552 0 -1 -0.448 -1 -1 v -7.852 c 0 -0.552 0.448 -1 1 -1 c 0.552 0 1 0.448 1 1 v 7.852 C 34.008 23.596 33.56 24.044 33.008 24.044 z" style="stroke: none; stroke-width: 1; stroke-dasharray: none; stroke-linecap: butt; stroke-linejoin: miter; stroke-miterlimit: 10; fill: rgb(255,255,255); fill-rule: nonzero; opacity: 1;" transform=" matrix(1 0 0 1 0 0) " stroke-linecap="round" />
	<path d="M 41.872 68.985 c -0.552 0 -1 -0.447 -1 -1 V 48.323 c 0 -0.553 0.448 -1 1 -1 c 0.552 0 1 0.447 1 1 v 19.662 C 42.871 68.538 42.424 68.985 41.872 68.985 z" style="stroke: none; stroke-width: 1; stroke-dasharray: none; stroke-linecap: butt; stroke-linejoin: miter; stroke-miterlimit: 10; fill: rgb(255,255,255); fill-rule: nonzero; opacity: 1;" transform=" matrix(1 0 0 1 0 0) " stroke-linecap="round" />
	<path d="M 50.735 64.261 c -0.553 0 -1 -0.447 -1 -1 V 48.323 c 0 -0.553 0.447 -1 1 -1 s 1 0.447 1 1 v 14.938 C 51.734 63.814 51.287 64.261 50.735 64.261 z" style="stroke: none; stroke-width: 1; stroke-dasharray: none; stroke-linecap: butt; stroke-linejoin: miter; stroke-miterlimit: 10; fill: rgb(255,255,255); fill-rule: nonzero; opacity: 1;" transform=" matrix(1 0 0 1 0 0) " stroke-linecap="round" />
	<path d="M 33.008 59.537 c -0.552 0 -1 -0.447 -1 -1 V 48.323 c 0 -0.553 0.448 -1 1 -1 c 0.552 0 1 0.447 1 1 v 10.214 C 34.008 59.09 33.56 59.537 33.008 59.537 z" style="stroke: none; stroke-width: 1; stroke-dasharray: none; stroke-linecap: butt; stroke-linejoin: miter; stroke-miterlimit: 10; fill: rgb(255,255,255); fill-rule: nonzero; opacity: 1;" transform=" matrix(1 0 0 1 0 0) " stroke-linecap="round" />
	<path d="M 29.232 36.683 H 15.475 c -0.552 0 -1 -0.448 -1 -1 c 0 -0.552 0.448 -1 1 -1 h 13.757 c 0.552 0 1 0.448 1 1 C 30.232 36.236 29.784 36.683 29.232 36.683 z" style="stroke: none; stroke-width: 1; stroke-dasharray: none; stroke-linecap: butt; stroke-linejoin: miter; stroke-miterlimit: 10; fill: rgb(255,255,255); fill-rule: nonzero; opacity: 1;" transform=" matrix(1 0 0 1 0 0) " stroke-linecap="round" />
	<path d="M 29.232 27.82 h -9.033 c -0.552 0 -1 -0.448 -1 -1 s 0.448 -1 1 -1 h 9.033 c 0.552 0 1 0.448 1 1 S 29.784 27.82 29.232 27.82 z" style="stroke: none; stroke-width: 1; stroke-dasharray: none; stroke-linecap: butt; stroke-linejoin: miter; stroke-miterlimit: 10; fill: rgb(255,255,255); fill-rule: nonzero; opacity: 1;" transform=" matrix(1 0 0 1 0 0) " stroke-linecap="round" />
	<path d="M 29.232 45.546 H 21.38 c -0.552 0 -1 -0.448 -1 -1 c 0 -0.552 0.448 -1 1 -1 h 7.852 c 0.552 0 1 0.448 1 1 C 30.232 45.099 29.784 45.546 29.232 45.546 z" style="stroke: none; stroke-width: 1; stroke-dasharray: none; stroke-linecap: butt; stroke-linejoin: miter; stroke-miterlimit: 10; fill: rgb(255,255,255); fill-rule: nonzero; opacity: 1;" transform=" matrix(1 0 0 1 0 0) " stroke-linecap="round" />
	<path d="M 69.449 36.683 H 54.51 c -0.553 0 -1 -0.448 -1 -1 c 0 -0.552 0.447 -1 1 -1 h 14.938 c 0.553 0 1 0.448 1 1 C 70.449 36.236 70.001 36.683 69.449 36.683 z" style="stroke: none; stroke-width: 1; stroke-dasharray: none; stroke-linecap: butt; stroke-linejoin: miter; stroke-miterlimit: 10; fill: rgb(255,255,255); fill-rule: nonzero; opacity: 1;" transform=" matrix(1 0 0 1 0 0) " stroke-linecap="round" />
	<path d="M 62.363 27.82 H 54.51 c -0.553 0 -1 -0.448 -1 -1 s 0.447 -1 1 -1 h 7.852 c 0.553 0 1 0.448 1 1 S 62.915 27.82 62.363 27.82 z" style="stroke: none; stroke-width: 1; stroke-dasharray: none; stroke-linecap: butt; stroke-linejoin: miter; stroke-miterlimit: 10; fill: rgb(255,255,255); fill-rule: nonzero; opacity: 1;" transform=" matrix(1 0 0 1 0 0) " stroke-linecap="round" />
	<path d="M 63.544 45.546 H 54.51 c -0.553 0 -1 -0.448 -1 -1 c 0 -0.552 0.447 -1 1 -1 h 9.034 c 0.553 0 1 0.448 1 1 C 64.544 45.099 64.097 45.546 63.544 45.546 z" style="stroke: none; stroke-width: 1; stroke-dasharray: none; stroke-linecap: butt; stroke-linejoin: miter; stroke-miterlimit: 10; fill: rgb(255,255,255); fill-rule: nonzero; opacity: 1;" transform=" matrix(1 0 0 1 0 0) " stroke-linecap="round" />
	<path d="M 35.872 36.283 c -0.552 0 -1 -0.448 -1 -1 v -5.599 c 0 -0.552 0.448 -1 1 -1 h 5.599 c 0.552 0 1 0.448 1 1 c 0 0.552 -0.448 1 -1 1 h -4.599 v 4.599 C 36.872 35.835 36.425 36.283 35.872 36.283 z" style="stroke: none; stroke-width: 1; stroke-dasharray: none; stroke-linecap: butt; stroke-linejoin: miter; stroke-miterlimit: 10; fill: rgb(255,255,255); fill-rule: nonzero; opacity: 1;" transform=" matrix(1 0 0 1 0 0) " stroke-linecap="round" />
	<path d="M 47.871 42.682 h -5.599 c -0.552 0 -1 -0.448 -1 -1 c 0 -0.552 0.448 -1 1 -1 h 4.599 v -4.599 c 0 -0.552 0.447 -1 1 -1 c 0.553 0 1 0.448 1 1 v 5.599 C 48.871 42.235 48.423 42.682 47.871 42.682 z" style="stroke: none; stroke-width: 1; stroke-dasharray: none; stroke-linecap: butt; stroke-linejoin: miter; stroke-miterlimit: 10; fill: rgb(255,255,255); fill-rule: nonzero; opacity: 1;" transform=" matrix(1 0 0 1 0 0) " stroke-linecap="round" />
	<path d="M 51.233 89.994 H 16.824 c -0.339 0 -0.654 -0.172 -0.839 -0.456 c -0.185 -0.284 -0.212 -0.642 -0.074 -0.951 c 5.988 -13.418 5.603 -17.403 4.949 -17.807 C 6.138 61.842 2.334 35.569 5.957 25.296 c 4.51 -13.489 16.707 -23.058 31.826 -24.958 c 14.14 -1.781 27.007 3.448 33.577 13.637 c 3.818 6.428 5.503 14.041 5.653 25.488 c 0.066 3.267 3.215 6.748 5.515 9.29 c 1.49 1.647 2.569 2.839 2.782 3.856 c 0.101 0.459 0.1 1.174 -0.469 1.99 c -1.031 1.481 -3.376 2.536 -5.116 2.803 c 0.083 0.534 0.627 1.628 0.906 2.19 c 0.222 0.446 0.425 0.858 0.552 1.182 c 0.178 0.548 0.104 1.042 -0.189 1.451 c -0.709 0.987 -2.635 1.24 -5.333 1.326 c 0.359 0.178 0.724 0.348 1.075 0.513 c 1.876 0.88 3.496 1.639 3.852 2.931 c 0.447 1.619 -1.292 2.197 -2.128 2.475 c -0.166 0.055 -0.4 0.133 -0.582 0.206 c 0.762 2.232 1.46 5.355 -0.269 7.745 c -2.887 3.394 -6.619 3.941 -17.416 2.604 c -0.057 -0.007 -0.112 -0.019 -0.167 -0.035 c -1.925 -0.584 -5.538 3.71 -7.868 9.383 C 52.004 89.749 51.638 89.994 51.233 89.994 z M 18.357 87.994 H 50.57 c 2.418 -5.582 6.449 -10.888 9.945 -9.944 c 11.366 1.402 13.545 0.459 15.521 -1.863 c 0.919 -1.274 0.877 -3.276 -0.18 -6.236 c -0.48 -1.563 1.176 -2.114 1.972 -2.379 c 0.195 -0.064 0.477 -0.158 0.681 -0.247 c -0.456 -0.435 -1.782 -1.056 -2.624 -1.451 c -1.471 -0.69 -3.139 -1.472 -4.202 -2.546 c -0.276 -0.279 -0.363 -0.695 -0.222 -1.062 c 0.142 -0.368 0.485 -0.618 0.878 -0.639 c 0.41 -0.022 0.964 -0.031 1.592 -0.04 c 1.21 -0.017 4.239 -0.06 5.235 -0.441 c -0.091 -0.192 -0.206 -0.423 -0.326 -0.665 c -0.745 -1.498 -1.514 -3.046 -0.899 -4.167 c 0.158 -0.289 0.554 -0.787 1.42 -0.879 c 1.433 -0.193 3.241 -1.12 3.84 -1.98 c 0.12 -0.172 0.177 -0.324 0.156 -0.418 c -0.002 -0.006 -0.003 -0.012 -0.004 -0.018 c -0.1 -0.484 -1.324 -1.838 -2.308 -2.926 c -2.51 -2.775 -5.949 -6.577 -6.031 -10.597 c -0.145 -11.079 -1.747 -18.395 -5.354 -24.469 C 63.529 5.522 51.406 0.64 38.032 2.321 C 23.683 4.124 12.117 13.177 7.848 25.945 c -3.355 9.514 0.373 34.821 14.057 43.13 C 22.834 69.649 25.595 71.355 18.357 87.994 z M 79.299 61.445 h 0.011 H 79.299 z" style="stroke: none; stroke-width: 1; stroke-dasharray: none; stroke-linecap: butt; stroke-linejoin: miter; stroke-miterlimit: 10; fill: rgb(255,255,255); fill-rule: nonzero; opacity: 1;" transform=" matrix(1 0 0 1 0 0) " stroke-linecap="round" />
	<path d="M 60.316 80.033 c -0.024 0 -0.049 -0.001 -0.073 -0.003 c -3.691 -0.266 -7.188 -1.935 -10.692 -5.102 c -0.409 -0.371 -0.441 -1.003 -0.071 -1.413 c 0.372 -0.408 1.004 -0.441 1.413 -0.071 c 3.159 2.857 6.265 4.359 9.495 4.592 c 0.551 0.039 0.965 0.518 0.925 1.069 C 61.274 79.632 60.836 80.033 60.316 80.033 z" style="stroke: none; stroke-width: 1; stroke-dasharray: none; stroke-linecap: butt; stroke-linejoin: miter; stroke-miterlimit: 10; fill: rgb(255,255,255); fill-rule: nonzero; opacity: 1;" transform=" matrix(1 0 0 1 0 0) " stroke-linecap="round" />
</g>
</svg>