<svg width="256" height="256" viewBox="0 0 256 256" fill="none" xmlns="http://www.w3.org/2000/svg">
<path d="M253.9 159.261H1V27.3907C1 18.9916 7.83111 12.1605 16.2302 12.1605H238.67C247.066 12.1605 253.9 18.9916 253.9 27.3907V159.261ZM6.62 153.641H248.28V27.3907C248.28 22.091 243.969 17.7805 238.67 17.7805H16.2302C10.9305 17.7805 6.62 22.091 6.62 27.3907V153.641Z" fill="white"/>
<path d="M238.67 194.173H16.2302C7.83111 194.173 1 187.339 1 178.942V153.641H253.9V178.942C253.9 187.339 247.066 194.173 238.67 194.173ZM6.62 159.261V178.942C6.62 184.242 10.9305 188.553 16.2302 188.553H238.67C243.969 188.553 248.28 184.242 248.28 178.942V159.261H6.62Z" fill="white"/>
<path d="M166.298 228.913H88.6018C87.3878 228.913 86.3116 228.134 85.9323 226.979C85.5529 225.824 85.9604 224.56 86.9382 223.841C97.6106 216.003 104.734 204.03 106.482 190.992C106.667 189.598 107.859 188.555 109.266 188.555H145.628C147.036 188.555 148.227 189.595 148.413 190.992C150.16 204.033 157.287 216.003 167.959 223.841C168.94 224.56 169.344 225.824 168.965 226.979C168.586 228.134 167.515 228.913 166.298 228.913ZM96.2225 223.293H158.68C150.692 215.425 145.237 205.205 143.231 194.173H111.669C109.666 205.205 104.211 215.425 96.2225 223.293Z" fill="white"/>
<path d="M172.562 243.556H82.3383C76.752 243.556 72.2082 239.012 72.2082 233.425C72.2082 227.839 76.752 223.295 82.3383 223.295H172.562C178.148 223.295 182.692 227.839 182.692 233.425C182.692 239.012 178.148 243.556 172.562 243.556ZM82.3383 228.913C79.8514 228.913 77.8282 230.936 77.8282 233.423C77.8282 235.91 79.8514 237.933 82.3383 237.933H172.562C175.051 237.933 177.072 235.91 177.072 233.423C177.072 230.936 175.049 228.913 172.562 228.913H82.3383Z" fill="white"/>
<path d="M132.23 176.717H122.67C121.119 176.717 119.86 175.461 119.86 173.907C119.86 172.353 121.119 171.097 122.67 171.097H132.23C133.784 171.097 135.04 172.353 135.04 173.907C135.04 175.461 133.784 176.717 132.23 176.717Z" fill="white"/>
<path d="M118.081 89.2937C118.081 89.2937 115.435 90.8813 120.012 91.4369C124.941 92.1136 129.95 91.8986 134.803 90.8019C136.05 91.5501 137.36 92.1876 138.718 92.7069C124.748 98.7129 107.101 92.3629 118.081 89.2937ZM116.361 81.4885C116.361 81.4885 113.318 83.764 117.975 84.1344C124.341 84.8919 130.789 84.5789 137.051 83.2083C137.895 84.0048 138.895 84.6174 139.988 85.0075C123.108 89.9552 104.296 85.4044 116.361 81.3827V81.4885ZM130.754 68.2329C131.201 68.7829 131.532 69.4168 131.728 70.0971C131.925 70.7774 131.983 71.4903 131.899 72.1935C131.815 72.8967 131.591 73.5758 131.24 74.1908C130.889 74.8058 130.418 75.344 129.855 75.7735C129.855 75.7735 138.586 71.2492 134.591 65.6135C130.596 59.9779 127.95 57.676 143.507 48.7067C143.507 48.7067 119.086 54.7921 130.754 68.2329Z" fill="white"/>
<path d="M149.222 95.0881C149.222 95.0881 151.26 96.755 147 98.025C139.062 100.486 113.451 101.2 106.36 98.025C103.714 96.9138 108.609 95.3792 110.09 95.0617C110.896 94.8638 111.722 94.7661 112.551 94.7706C109.72 92.7863 94.2683 98.6865 104.614 100.38C133.083 105.01 156.525 98.316 149.116 95.0881H149.222ZM119.377 73.3923C119.377 73.3923 106.333 76.4879 114.8 77.5992C120.509 78.046 126.247 77.984 131.945 77.414C137.237 76.9642 142.714 75.9852 142.714 75.9852C141.576 76.4815 140.479 77.0653 139.433 77.7315C126.204 81.1975 100.83 79.5835 108.159 76.0646C111.632 74.2963 115.48 73.3888 119.377 73.4188V73.3923ZM142.661 86.4098C156.049 79.4512 149.857 72.7573 145.518 73.6569C145.006 73.7605 144.502 73.902 144.01 74.0802C144.281 73.6643 144.681 73.3484 145.148 73.1806C153.694 70.1908 160.255 82.0442 142.502 86.7538C142.604 86.6509 142.693 86.5353 142.766 86.4098H142.661ZM134.591 34.1281C134.591 34.1281 141.999 41.5365 127.553 52.94C115.964 62.0417 124.854 67.3333 127.5 73.26C120.727 67.1746 115.779 61.8035 119.086 56.8029C123.981 49.474 137.607 45.9021 134.538 34.1281H134.591Z" fill="white"/>
<path d="M120.7 105.248C133.559 106.068 153.297 104.798 153.747 98.7129C153.747 98.7129 152.847 101.015 143.163 102.84C132.415 104.685 121.446 104.855 110.646 103.343C110.646 103.343 112.286 104.719 120.727 105.248H120.7ZM153.165 116.149H152.768V115.937H153.958V116.149H153.429V117.26H153.165V116.149ZM155.255 116.149L154.884 117.207H154.699L154.302 116.149V117.207H153.958V115.884H154.355L154.699 116.81L155.07 115.884H155.44V117.207H155.175V116.149H155.255ZM118.61 128.479C117.624 129.438 116.331 130.019 114.959 130.119C114.599 130.173 114.232 130.141 113.886 130.027C113.541 129.913 113.227 129.72 112.969 129.462C112.712 129.205 112.519 128.891 112.405 128.546C112.291 128.2 112.259 127.833 112.313 127.473C112.313 125.78 113.265 124.536 117.075 124.536H118.504V128.399L118.61 128.479ZM121.944 132.262V120.567C121.944 117.604 120.25 115.62 116.149 115.62C114.005 115.626 111.886 116.085 109.932 116.969L110.434 119.033C111.963 118.44 113.584 118.118 115.223 118.08C117.578 118.08 118.61 119.033 118.61 121.017V122.473H117.419C111.625 122.473 108.979 124.721 108.979 128.187C108.979 131.071 110.699 132.712 113.9 132.712C115.789 132.68 117.595 131.933 118.954 130.622L119.219 132.394L121.944 132.262ZM133.109 132.262H128.929L123.902 115.911H127.5L130.622 125.965L131.31 128.981C132.865 124.755 133.956 120.373 134.564 115.911H138.083C137.107 121.555 135.408 127.051 133.03 132.262H133.109ZM149.116 128.479C148.13 129.438 146.837 130.019 145.465 130.119C145.114 130.156 144.76 130.111 144.429 129.989C144.098 129.867 143.8 129.671 143.557 129.415C143.314 129.159 143.133 128.851 143.028 128.515C142.923 128.178 142.897 127.822 142.952 127.473C142.952 125.78 143.904 124.536 147.688 124.536H149.116V128.399V128.479ZM152.45 132.262V120.567C152.45 117.604 150.757 115.62 146.656 115.62C144.511 115.626 142.392 116.085 140.438 116.969L140.941 119.033C142.47 118.44 144.09 118.118 145.73 118.08C148.085 118.08 149.116 119.033 149.116 121.017V122.473H147.926C142.184 122.473 139.591 124.721 139.591 128.055C139.591 130.939 141.311 132.58 144.513 132.58C146.401 132.548 148.207 131.801 149.566 130.489L149.831 132.262H152.45ZM105.407 135.04C104.355 136.473 102.9 137.56 101.227 138.162L99.5865 136.125C100.78 135.536 101.781 134.618 102.47 133.479C103.04 131.97 103.258 130.35 103.105 128.743V110.222H106.651V128.611C106.95 130.866 106.513 133.158 105.407 135.146V135.04Z" fill="white"/>
</svg>
