<svg xmlns="http://www.w3.org/2000/svg" xmlns:xlink="http://www.w3.org/1999/xlink" version="1.1" width="256" height="256" viewBox="0 0 256 256" xml:space="preserve">

<defs>
</defs>
<g style="stroke: none; stroke-width: 0; stroke-dasharray: none; stroke-linecap: butt; stroke-linejoin: miter; stroke-miterlimit: 10; fill: none; fill-rule: nonzero; opacity: 1;" transform="translate(1.4065934065934016 1.4065934065934016) scale(2.81 2.81)" >
	<path d="M 47.071 61.99 c -2.063 -0.555 -4.221 -0.27 -6.071 0.799 c -1.851 1.068 -3.175 2.793 -3.728 4.857 c -0.553 2.064 -0.269 4.221 0.799 6.071 c 1.48 2.563 4.175 3.999 6.942 3.999 c 1.356 0 2.73 -0.345 3.987 -1.07 c 1.851 -1.069 3.175 -2.794 3.728 -4.858 c 0.554 -2.064 0.27 -4.22 -0.799 -6.07 S 49.135 62.543 47.071 61.99 z M 50.796 71.271 c -0.415 1.548 -1.407 2.842 -2.796 3.644 c -2.866 1.653 -6.543 0.668 -8.196 -2.196 c -0.802 -1.389 -1.015 -3.005 -0.6 -4.554 c 0.415 -1.548 1.408 -2.842 2.796 -3.643 c 0.925 -0.534 1.951 -0.807 2.991 -0.807 c 0.521 0 1.045 0.068 1.563 0.207 c 1.548 0.415 2.842 1.407 3.643 2.796 C 50.998 68.105 51.211 69.723 50.796 71.271 z" style="stroke: none; stroke-width: 1; stroke-dasharray: none; stroke-linecap: butt; stroke-linejoin: miter; stroke-miterlimit: 10; fill: rgb(255,255,255); fill-rule: nonzero; opacity: 1;" transform=" matrix(1 0 0 1 0 0) " stroke-linecap="round" />
	<path d="M 64.389 67.511 c 0 -2.142 -1.743 -3.885 -3.886 -3.885 c -0.707 0 -1.357 -0.408 -1.695 -1.062 c -0.107 -0.21 -0.222 -0.419 -0.34 -0.622 c -0.118 -0.206 -0.241 -0.407 -0.367 -0.603 c -0.398 -0.623 -0.427 -1.391 -0.073 -2.003 c 1.071 -1.855 0.434 -4.236 -1.422 -5.308 l -3.822 -2.206 c -1.857 -1.073 -4.236 -0.434 -5.309 1.424 c -0.353 0.612 -1.011 0.978 -1.724 0.936 c -0.501 -0.023 -1.007 -0.023 -1.508 0 c -0.697 0.041 -1.365 -0.324 -1.718 -0.938 c -1.072 -1.856 -3.454 -2.493 -5.308 -1.422 l -3.822 2.206 c -0.899 0.52 -1.542 1.357 -1.811 2.359 c -0.269 1.003 -0.13 2.05 0.389 2.949 c 0.354 0.612 0.335 1.361 -0.047 1.956 c -0.271 0.419 -0.525 0.859 -0.755 1.308 c -0.324 0.632 -0.966 1.024 -1.674 1.024 c -2.142 0 -3.885 1.743 -3.885 3.885 v 4.413 c 0 2.143 1.743 3.886 3.885 3.886 c 0.707 0 1.357 0.408 1.697 1.065 c 0.107 0.207 0.22 0.413 0.338 0.617 c 0.118 0.205 0.24 0.405 0.367 0.604 c 0.399 0.623 0.428 1.39 0.074 2.002 c -0.519 0.898 -0.657 1.945 -0.388 2.948 c 0.269 1.002 0.912 1.84 1.811 2.359 l 3.822 2.207 c 1.856 1.068 4.237 0.431 5.308 -1.424 c 0.353 -0.611 1.009 -0.974 1.722 -0.937 c 0.5 0.024 1.009 0.024 1.509 0 c 0.711 -0.045 1.367 0.325 1.719 0.938 c 0.719 1.245 2.028 1.941 3.372 1.941 c 0.658 0 1.325 -0.167 1.936 -0.519 l 3.822 -2.207 c 1.854 -1.071 2.493 -3.453 1.421 -5.31 c -0.354 -0.61 -0.335 -1.359 0.05 -1.956 c 0.271 -0.424 0.524 -0.863 0.753 -1.307 c 0.324 -0.631 0.966 -1.023 1.674 -1.023 c 2.143 0 3.886 -1.743 3.886 -3.886 V 67.511 z M 62.389 71.924 c 0 1.04 -0.847 1.886 -1.887 1.886 c -1.46 0 -2.783 0.809 -3.452 2.109 c -0.198 0.387 -0.42 0.771 -0.656 1.139 c -0.791 1.229 -0.829 2.776 -0.099 4.04 c 0.252 0.437 0.319 0.944 0.188 1.431 c -0.13 0.486 -0.442 0.893 -0.878 1.145 l -3.822 2.207 c -0.901 0.52 -2.056 0.209 -2.576 -0.692 c -0.729 -1.263 -2.081 -1.999 -3.548 -1.934 c -0.436 0.021 -0.878 0.021 -1.313 0 c -1.466 -0.06 -2.824 0.671 -3.554 1.936 c -0.52 0.901 -1.677 1.21 -2.575 0.69 l -3.822 -2.207 c -0.436 -0.252 -0.748 -0.658 -0.878 -1.145 s -0.063 -0.994 0.188 -1.431 c 0.728 -1.263 0.682 -2.826 -0.121 -4.078 c -0.11 -0.173 -0.217 -0.348 -0.32 -0.525 c -0.103 -0.179 -0.201 -0.357 -0.294 -0.538 c -0.685 -1.324 -2.015 -2.146 -3.473 -2.146 c -1.04 0 -1.885 -0.846 -1.885 -1.886 v -4.413 c 0 -1.039 0.846 -1.885 1.887 -1.885 c 1.46 0 2.783 -0.809 3.451 -2.11 c 0.201 -0.39 0.422 -0.772 0.658 -1.139 c 0.791 -1.228 0.828 -2.775 0.098 -4.04 c -0.252 -0.437 -0.319 -0.944 -0.188 -1.431 s 0.442 -0.893 0.878 -1.145 l 3.822 -2.206 c 0.291 -0.168 0.613 -0.254 0.939 -0.254 c 0.164 0 0.329 0.021 0.491 0.065 c 0.486 0.13 0.893 0.442 1.145 0.879 c 0.729 1.265 2.088 2.001 3.547 1.935 c 0.437 -0.021 0.88 -0.021 1.315 0 c 1.48 0.074 2.823 -0.67 3.554 -1.936 c 0.252 -0.436 0.658 -0.748 1.145 -0.878 c 0.484 -0.132 0.994 -0.063 1.431 0.188 l 3.822 2.206 c 0.9 0.52 1.21 1.675 0.689 2.575 c -0.729 1.262 -0.683 2.826 0.123 4.083 c 0.109 0.17 0.215 0.344 0.319 0.524 c 0.103 0.176 0.199 0.354 0.292 0.535 c 0.685 1.324 2.016 2.146 3.474 2.146 c 1.04 0 1.886 0.846 1.886 1.885 V 71.924 z" style="stroke: none; stroke-width: 1; stroke-dasharray: none; stroke-linecap: butt; stroke-linejoin: miter; stroke-miterlimit: 10; fill: rgb(255,255,255); fill-rule: nonzero; opacity: 1;" transform=" matrix(1 0 0 1 0 0) " stroke-linecap="round" />
	<path d="M 86.643 59.557 c -0.508 0 -0.977 -0.296 -1.223 -0.77 c -0.089 -0.173 -0.182 -0.344 -0.282 -0.518 c -0.098 -0.169 -0.198 -0.335 -0.303 -0.496 c -0.288 -0.451 -0.31 -1.005 -0.056 -1.445 c 0.925 -1.604 0.374 -3.661 -1.229 -4.586 l -3.122 -1.803 c -1.603 -0.923 -3.661 -0.373 -4.587 1.23 c -0.253 0.44 -0.733 0.689 -1.24 0.673 c -0.417 -0.02 -0.834 -0.02 -1.251 0 c -0.505 0.017 -0.98 -0.233 -1.235 -0.674 c -0.925 -1.603 -2.979 -2.154 -4.586 -1.229 l -3.122 1.803 c -0.776 0.448 -1.332 1.172 -1.564 2.038 c -0.231 0.866 -0.112 1.771 0.336 2.548 c 0.254 0.44 0.24 0.979 -0.036 1.409 c -0.225 0.351 -0.433 0.712 -0.624 1.082 c -0.233 0.455 -0.694 0.737 -1.203 0.737 c -0.553 0 -1 0.447 -1 1 s 0.447 1 1 1 c 1.262 0 2.404 -0.698 2.981 -1.822 c 0.161 -0.313 0.338 -0.619 0.528 -0.915 c 0.684 -1.062 0.716 -2.399 0.085 -3.491 c -0.374 -0.648 -0.151 -1.479 0.497 -1.854 l 3.122 -1.803 c 0.647 -0.374 1.479 -0.151 1.854 0.497 c 0.63 1.092 1.785 1.737 3.064 1.672 c 0.353 -0.018 0.706 -0.018 1.057 0 c 1.248 0.061 2.439 -0.579 3.071 -1.672 c 0.181 -0.314 0.474 -0.539 0.823 -0.633 c 0.353 -0.094 0.717 -0.046 1.03 0.136 l 3.122 1.803 c 0.647 0.374 0.87 1.205 0.496 1.854 c -0.629 1.09 -0.59 2.44 0.105 3.525 c 0.088 0.138 0.173 0.278 0.254 0.417 c 0.082 0.144 0.161 0.287 0.237 0.435 c 0.591 1.142 1.74 1.852 2.999 1.852 c 0.748 0 1.357 0.608 1.357 1.356 v 3.605 c 0 0.748 -0.609 1.356 -1.358 1.356 c -1.261 0 -2.403 0.698 -2.983 1.825 c -0.159 0.312 -0.335 0.616 -0.526 0.912 c -0.684 1.062 -0.716 2.399 -0.085 3.491 c 0.374 0.648 0.151 1.479 -0.496 1.854 l -3.122 1.803 c -0.648 0.375 -1.48 0.15 -1.854 -0.497 c -0.63 -1.091 -1.805 -1.717 -3.064 -1.672 c -0.353 0.018 -0.706 0.018 -1.057 0 c -1.251 -0.062 -2.44 0.58 -3.07 1.673 c -0.373 0.646 -1.204 0.871 -1.854 0.496 l -3.122 -1.803 c -0.478 -0.276 -1.09 -0.113 -1.366 0.366 c -0.276 0.479 -0.112 1.09 0.366 1.366 l 3.122 1.803 c 0.527 0.304 1.104 0.448 1.672 0.448 c 1.161 0 2.293 -0.602 2.914 -1.679 c 0.254 -0.439 0.73 -0.702 1.24 -0.673 c 0.414 0.019 0.83 0.019 1.25 0 c 0.507 -0.016 0.983 0.234 1.237 0.675 c 0.925 1.602 2.979 2.154 4.586 1.229 l 3.122 -1.803 c 1.603 -0.925 2.153 -2.981 1.229 -4.586 c -0.255 -0.44 -0.241 -0.979 0.034 -1.407 c 0.227 -0.353 0.436 -0.714 0.624 -1.083 c 0.234 -0.455 0.696 -0.738 1.205 -0.738 c 1.852 0 3.357 -1.506 3.357 -3.356 v -3.605 C 90 61.063 88.494 59.557 86.643 59.557 z" style="stroke: none; stroke-width: 1; stroke-dasharray: none; stroke-linecap: butt; stroke-linejoin: miter; stroke-miterlimit: 10; fill: rgb(255,255,255); fill-rule: nonzero; opacity: 1;" transform=" matrix(1 0 0 1 0 0) " stroke-linecap="round" />
	<path d="M 73.989 71.433 c 1.14 0 2.293 -0.289 3.349 -0.898 c 3.208 -1.853 4.312 -5.969 2.459 -9.178 s -5.97 -4.31 -9.178 -2.459 c -3.208 1.853 -4.312 5.969 -2.459 9.178 C 69.403 70.229 71.666 71.433 73.989 71.433 z M 69.421 63.494 c 0.326 -1.217 1.106 -2.234 2.198 -2.864 c 0.728 -0.42 1.534 -0.635 2.353 -0.635 c 0.409 0 0.821 0.054 1.229 0.163 c 1.217 0.326 2.234 1.106 2.864 2.198 c 1.301 2.253 0.526 5.145 -1.727 6.445 c -1.092 0.629 -2.36 0.799 -3.581 0.472 c -1.217 -0.326 -2.234 -1.106 -2.864 -2.198 C 69.262 65.983 69.095 64.712 69.421 63.494 z" style="stroke: none; stroke-width: 1; stroke-dasharray: none; stroke-linecap: butt; stroke-linejoin: miter; stroke-miterlimit: 10; fill: rgb(255,255,255); fill-rule: nonzero; opacity: 1;" transform=" matrix(1 0 0 1 0 0) " stroke-linecap="round" />
	<path d="M 19.38 58.897 c -1.554 -0.897 -3.365 -1.137 -5.098 -0.671 c -1.733 0.464 -3.182 1.575 -4.08 3.13 c -1.852 3.208 -0.749 7.325 2.459 9.178 c 1.035 0.598 2.184 0.903 3.349 0.903 c 0.583 0 1.171 -0.077 1.75 -0.232 c 1.733 -0.464 3.182 -1.575 4.08 -3.13 C 23.692 64.867 22.588 60.75 19.38 58.897 z M 20.107 67.075 c -0.63 1.092 -1.647 1.872 -2.865 2.198 c -1.219 0.328 -2.49 0.158 -3.581 -0.472 c -2.253 -1.301 -3.028 -4.192 -1.727 -6.445 c 0.63 -1.092 1.647 -1.872 2.865 -2.198 c 0.407 -0.109 0.819 -0.163 1.229 -0.163 c 0.818 0 1.625 0.215 2.352 0.635 c 1.092 0.63 1.873 1.647 2.199 2.865 C 20.905 64.712 20.738 65.983 20.107 67.075 z" style="stroke: none; stroke-width: 1; stroke-dasharray: none; stroke-linecap: butt; stroke-linejoin: miter; stroke-miterlimit: 10; fill: rgb(255,255,255); fill-rule: nonzero; opacity: 1;" transform=" matrix(1 0 0 1 0 0) " stroke-linecap="round" />
	<path d="M 24.593 75.957 l -3.121 1.803 c -0.648 0.376 -1.48 0.15 -1.854 -0.497 c -0.631 -1.093 -1.806 -1.738 -3.07 -1.672 c -0.351 0.018 -0.704 0.018 -1.057 0 c -1.269 -0.045 -2.436 0.58 -3.064 1.673 c -0.375 0.647 -1.207 0.87 -1.854 0.496 l -3.123 -1.803 c -0.313 -0.181 -0.538 -0.474 -0.632 -0.823 c -0.094 -0.351 -0.045 -0.716 0.136 -1.03 c 0.63 -1.093 0.597 -2.43 -0.085 -3.49 c -0.191 -0.297 -0.367 -0.602 -0.528 -0.915 c -0.578 -1.125 -1.721 -1.823 -2.983 -1.823 C 2.609 67.875 2 67.267 2 66.519 v -3.605 c 0 -0.748 0.609 -1.356 1.357 -1.356 c 1.259 0 2.409 -0.71 2.999 -1.852 c 0.076 -0.146 0.154 -0.289 0.237 -0.432 c 0.083 -0.144 0.168 -0.284 0.256 -0.422 c 0.693 -1.083 0.733 -2.434 0.104 -3.523 c -0.182 -0.314 -0.229 -0.68 -0.136 -1.03 c 0.094 -0.35 0.318 -0.643 0.632 -0.823 l 3.122 -1.803 c 0.313 -0.182 0.681 -0.229 1.029 -0.136 c 0.351 0.094 0.644 0.319 0.825 0.634 c 0.63 1.092 1.818 1.741 3.069 1.671 c 0.351 -0.019 0.703 -0.018 1.056 0 c 1.248 0.063 2.434 -0.578 3.066 -1.672 c 0.374 -0.648 1.207 -0.871 1.854 -0.497 l 3.122 1.803 c 0.313 0.181 0.538 0.474 0.632 0.823 c 0.094 0.351 0.045 0.716 -0.136 1.03 c -0.63 1.093 -0.597 2.43 0.086 3.491 c 0.191 0.297 0.367 0.604 0.528 0.914 c 0.578 1.125 1.721 1.823 2.982 1.823 c 0.552 0 1 -0.447 1 -1 s -0.448 -1 -1 -1 c -0.508 0 -0.97 -0.282 -1.204 -0.738 c -0.19 -0.37 -0.398 -0.731 -0.625 -1.082 c -0.275 -0.429 -0.289 -0.968 -0.034 -1.408 c 0.448 -0.777 0.567 -1.682 0.335 -2.548 c -0.232 -0.866 -0.788 -1.59 -1.564 -2.038 l -3.122 -1.803 c -1.603 -0.924 -3.659 -0.374 -4.586 1.229 c -0.254 0.44 -0.735 0.697 -1.236 0.674 c -0.418 -0.02 -0.835 -0.02 -1.25 0 c -0.513 0.021 -0.986 -0.233 -1.24 -0.674 c -0.448 -0.776 -1.172 -1.332 -2.039 -1.564 c -0.866 -0.23 -1.771 -0.111 -2.547 0.335 L 6.45 51.742 c -0.777 0.448 -1.333 1.172 -1.564 2.038 c -0.232 0.866 -0.113 1.771 0.335 2.548 c 0.254 0.44 0.233 0.994 -0.056 1.445 c -0.104 0.163 -0.206 0.329 -0.303 0.498 c -0.098 0.17 -0.191 0.341 -0.281 0.515 c -0.246 0.476 -0.715 0.771 -1.223 0.771 C 1.506 59.557 0 61.063 0 62.913 v 3.605 c 0 1.851 1.506 3.356 3.358 3.356 c 0.509 0 0.97 0.282 1.204 0.736 c 0.19 0.371 0.398 0.732 0.625 1.084 c 0.275 0.429 0.289 0.968 0.034 1.408 c -0.448 0.777 -0.567 1.682 -0.335 2.548 c 0.232 0.866 0.788 1.59 1.564 2.038 l 3.122 1.803 c 0.517 0.299 1.091 0.451 1.673 0.451 c 0.292 0 0.585 -0.039 0.875 -0.116 c 0.866 -0.232 1.59 -0.788 2.039 -1.564 c 0.253 -0.439 0.723 -0.696 1.236 -0.674 c 0.418 0.02 0.835 0.02 1.25 0 c 0.501 -0.027 0.986 0.233 1.241 0.675 c 0.924 1.602 2.98 2.151 4.585 1.229 l 3.122 -1.803 c 0.479 -0.276 0.642 -0.888 0.366 -1.366 C 25.682 75.844 25.07 75.68 24.593 75.957 z" style="stroke: none; stroke-width: 1; stroke-dasharray: none; stroke-linecap: butt; stroke-linejoin: miter; stroke-miterlimit: 10; fill: rgb(255,255,255); fill-rule: nonzero; opacity: 1;" transform=" matrix(1 0 0 1 0 0) " stroke-linecap="round" />
	<path d="M 15.432 47.864 c 0.552 0 1 -0.447 1 -1 V 7.483 c 0 -1.994 1.622 -3.616 3.616 -3.616 h 49.904 c 1.994 0 3.616 1.622 3.616 3.616 v 39.381 c 0 0.553 0.447 1 1 1 s 1 -0.447 1 -1 V 7.483 c 0 -3.097 -2.52 -5.616 -5.616 -5.616 H 20.048 c -3.097 0 -5.616 2.52 -5.616 5.616 v 39.381 C 14.432 47.417 14.88 47.864 15.432 47.864 z" style="stroke: none; stroke-width: 1; stroke-dasharray: none; stroke-linecap: butt; stroke-linejoin: miter; stroke-miterlimit: 10; fill: rgb(255,255,255); fill-rule: nonzero; opacity: 1;" transform=" matrix(1 0 0 1 0 0) " stroke-linecap="round" />
	<path d="M 32.751 11.944 c 0.552 0 1 -0.448 1 -1 s -0.448 -1 -1 -1 h -9.01 c -0.552 0 -1 0.448 -1 1 v 12.909 c 0 0.552 0.448 1 1 1 H 36.65 c 0.552 0 1 -0.448 1 -1 v -4.562 c 0 -0.552 -0.448 -1 -1 -1 s -1 0.448 -1 1 v 3.562 H 24.741 V 11.944 H 32.751 z" style="stroke: none; stroke-width: 1; stroke-dasharray: none; stroke-linecap: butt; stroke-linejoin: miter; stroke-miterlimit: 10; fill: rgb(255,255,255); fill-rule: nonzero; opacity: 1;" transform=" matrix(1 0 0 1 0 0) " stroke-linecap="round" />
	<path d="M 39.494 10.217 c -0.402 -0.378 -1.034 -0.361 -1.414 0.042 l -7.296 7.738 l -2 -2.676 c -0.332 -0.442 -0.957 -0.532 -1.4 -0.203 c -0.442 0.331 -0.533 0.958 -0.203 1.4 l 2.712 3.629 c 0.177 0.236 0.449 0.383 0.744 0.4 c 0.019 0.001 0.038 0.001 0.057 0.001 c 0.274 0 0.538 -0.113 0.728 -0.314 l 8.112 -8.604 C 39.914 11.229 39.896 10.596 39.494 10.217 z" style="stroke: none; stroke-width: 1; stroke-dasharray: none; stroke-linecap: butt; stroke-linejoin: miter; stroke-miterlimit: 10; fill: rgb(255,255,255); fill-rule: nonzero; opacity: 1;" transform=" matrix(1 0 0 1 0 0) " stroke-linecap="round" />
	<path d="M 22.741 43.155 c 0 0.552 0.448 1 1 1 H 36.65 c 0.552 0 1 -0.448 1 -1 v -4.562 c 0 -0.552 -0.448 -1 -1 -1 s -1 0.448 -1 1 v 3.562 H 24.741 V 31.246 h 8.01 c 0.552 0 1 -0.448 1 -1 s -0.448 -1 -1 -1 h -9.01 c -0.552 0 -1 0.448 -1 1 V 43.155 z" style="stroke: none; stroke-width: 1; stroke-dasharray: none; stroke-linecap: butt; stroke-linejoin: miter; stroke-miterlimit: 10; fill: rgb(255,255,255); fill-rule: nonzero; opacity: 1;" transform=" matrix(1 0 0 1 0 0) " stroke-linecap="round" />
	<path d="M 39.494 29.519 c -0.402 -0.379 -1.034 -0.36 -1.414 0.042 l -7.296 7.737 l -2 -2.675 c -0.331 -0.442 -0.956 -0.533 -1.399 -0.202 c -0.442 0.331 -0.533 0.957 -0.202 1.399 l 2.712 3.628 c 0.177 0.237 0.449 0.383 0.744 0.4 c 0.019 0.001 0.038 0.001 0.057 0.001 c 0.274 0 0.538 -0.113 0.728 -0.314 l 8.112 -8.603 C 39.914 30.53 39.896 29.897 39.494 29.519 z" style="stroke: none; stroke-width: 1; stroke-dasharray: none; stroke-linecap: butt; stroke-linejoin: miter; stroke-miterlimit: 10; fill: rgb(255,255,255); fill-rule: nonzero; opacity: 1;" transform=" matrix(1 0 0 1 0 0) " stroke-linecap="round" />
	<path d="M 65.268 16.899 H 43.563 c -0.552 0 -1 0.448 -1 1 s 0.448 1 1 1 h 21.705 c 0.553 0 1 -0.448 1 -1 S 65.82 16.899 65.268 16.899 z" style="stroke: none; stroke-width: 1; stroke-dasharray: none; stroke-linecap: butt; stroke-linejoin: miter; stroke-miterlimit: 10; fill: rgb(255,255,255); fill-rule: nonzero; opacity: 1;" transform=" matrix(1 0 0 1 0 0) " stroke-linecap="round" />
	<path d="M 65.268 36.201 H 43.563 c -0.552 0 -1 0.448 -1 1 s 0.448 1 1 1 h 21.705 c 0.553 0 1 -0.448 1 -1 S 65.82 36.201 65.268 36.201 z" style="stroke: none; stroke-width: 1; stroke-dasharray: none; stroke-linecap: butt; stroke-linejoin: miter; stroke-miterlimit: 10; fill: rgb(255,255,255); fill-rule: nonzero; opacity: 1;" transform=" matrix(1 0 0 1 0 0) " stroke-linecap="round" />
</g>
</svg>