<svg xmlns="http://www.w3.org/2000/svg" xmlns:xlink="http://www.w3.org/1999/xlink" version="1.1" width="256" height="256" viewBox="0 0 256 256" xml:space="preserve">

<defs>
</defs>
<g style="stroke: none; stroke-width: 0; stroke-dasharray: none; stroke-linecap: butt; stroke-linejoin: miter; stroke-miterlimit: 10; fill: none; fill-rule: nonzero; opacity: 1;" transform="translate(1.4065934065934016 1.4065934065934016) scale(2.81 2.81)" >
	<path d="M 67.043 90 H 22.957 c -0.552 0 -1 -0.447 -1 -1 V 74.381 c 0 -3.428 2.627 -6.357 6.246 -6.967 l 5.951 -1.003 c 1.821 -0.307 3.143 -1.74 3.143 -3.408 l 0.038 -1.565 c 0.013 -0.552 0.475 -0.945 1.023 -0.976 c 0.552 0.014 0.989 0.472 0.976 1.024 l -0.037 1.541 c 0 2.624 -2.022 4.887 -4.81 5.356 l -5.951 1.003 c -2.653 0.446 -4.578 2.547 -4.578 4.994 V 88 h 42.086 V 74.381 c 0 -2.447 -1.926 -4.548 -4.578 -4.994 l -5.95 -1.003 c -2.787 -0.47 -4.811 -2.732 -4.811 -5.381 l -0.035 -1.519 c -0.013 -0.552 0.425 -1.01 0.978 -1.022 c 0.008 0 0.016 0 0.022 0 c 0.542 0 0.987 0.433 1 0.978 l 0.035 1.541 c 0 1.691 1.321 3.124 3.143 3.431 l 5.95 1.003 c 3.619 0.609 6.246 3.539 6.246 6.967 V 89 C 68.043 89.553 67.596 90 67.043 90 z" style="stroke: none; stroke-width: 1; stroke-dasharray: none; stroke-linecap: butt; stroke-linejoin: miter; stroke-miterlimit: 10; fill: rgb(255,255,255); fill-rule: nonzero; opacity: 1;" transform=" matrix(1 0 0 1 0 0) " stroke-linecap="round" />
	<path d="M 45.008 72.914 c -3.462 0 -6.927 -1.696 -10.371 -5.088 c -0.394 -0.388 -0.398 -1.021 -0.011 -1.415 c 0.388 -0.394 1.021 -0.396 1.414 -0.011 c 6.039 5.949 11.9 5.949 17.918 0.002 c 0.394 -0.39 1.027 -0.384 1.414 0.008 c 0.389 0.393 0.385 1.026 -0.008 1.414 C 51.931 71.218 48.471 72.914 45.008 72.914 z" style="stroke: none; stroke-width: 1; stroke-dasharray: none; stroke-linecap: butt; stroke-linejoin: miter; stroke-miterlimit: 10; fill: rgb(255,255,255); fill-rule: nonzero; opacity: 1;" transform=" matrix(1 0 0 1 0 0) " stroke-linecap="round" />
	<path d="M 31.986 89.998 c -0.532 0 -0.974 -0.417 -0.998 -0.954 c -0.003 -0.079 -0.014 -0.321 -0.007 -5.436 c 0.001 -0.569 -0.233 -1.118 -0.659 -1.544 c -0.495 -0.495 -1.204 -0.779 -1.945 -0.779 h -5.42 c -0.552 0 -1 -0.447 -1 -1 s 0.448 -1 1 -1 h 5.42 c 1.269 0 2.494 0.498 3.361 1.366 c 0.803 0.804 1.245 1.855 1.243 2.959 c -0.006 4.543 0.001 5.252 0.005 5.346 c 0.021 0.552 -0.407 1.018 -0.958 1.041 C 32.015 89.997 32 89.998 31.986 89.998 z" style="stroke: none; stroke-width: 1; stroke-dasharray: none; stroke-linecap: butt; stroke-linejoin: miter; stroke-miterlimit: 10; fill: rgb(255,255,255); fill-rule: nonzero; opacity: 1;" transform=" matrix(1 0 0 1 0 0) " stroke-linecap="round" />
	<path d="M 57.968 89.998 c -0.014 0 -0.028 -0.001 -0.043 -0.001 c -0.55 -0.023 -0.979 -0.489 -0.957 -1.04 c 0.008 -0.191 0.009 -1.99 0.005 -5.347 c -0.002 -1.104 0.439 -2.154 1.242 -2.959 c 0.867 -0.868 2.093 -1.366 3.362 -1.366 h 5.42 c 0.553 0 1 0.447 1 1 s -0.447 1 -1 1 h -5.42 c -0.742 0 -1.452 0.284 -1.946 0.779 c -0.426 0.426 -0.659 0.975 -0.658 1.543 c 0.005 3.65 0.003 5.226 -0.007 5.437 C 58.942 89.581 58.5 89.998 57.968 89.998 z" style="stroke: none; stroke-width: 1; stroke-dasharray: none; stroke-linecap: butt; stroke-linejoin: miter; stroke-miterlimit: 10; fill: rgb(255,255,255); fill-rule: nonzero; opacity: 1;" transform=" matrix(1 0 0 1 0 0) " stroke-linecap="round" />
	<path d="M 57.503 44.691 c -0.175 0 -0.353 -0.046 -0.514 -0.143 c -0.474 -0.284 -0.627 -0.898 -0.343 -1.372 c 1.812 -3.02 2.357 -5.648 1.624 -7.813 c -0.821 -2.422 -3.298 -4.465 -7.36 -6.073 c -0.462 -0.183 -0.72 -0.678 -0.604 -1.161 c 0.153 -0.646 0.601 -1.236 1.397 -1.817 c -5.796 -1.54 -12.375 -0.79 -15.554 4.342 c -0.123 0.198 -0.31 0.347 -0.531 0.421 c -1.838 0.62 -3.137 1.808 -3.754 3.435 c -0.88 2.319 -0.334 5.395 1.538 8.659 c 0.274 0.479 0.109 1.09 -0.37 1.365 c -0.481 0.275 -1.09 0.109 -1.365 -0.37 c -2.174 -3.793 -2.768 -7.474 -1.672 -10.363 c 0.797 -2.101 2.399 -3.651 4.646 -4.5 c 4.252 -6.451 13.015 -6.765 19.9 -4.179 c 0.378 0.142 0.634 0.497 0.647 0.9 c 0.015 0.403 -0.215 0.776 -0.581 0.944 c -0.852 0.391 -1.396 0.721 -1.744 0.978 c 3.922 1.77 6.375 4.045 7.301 6.777 c 0.932 2.746 0.325 5.937 -1.803 9.483 C 58.174 44.519 57.843 44.691 57.503 44.691 z" style="stroke: none; stroke-width: 1; stroke-dasharray: none; stroke-linecap: butt; stroke-linejoin: miter; stroke-miterlimit: 10; fill: rgb(255,255,255); fill-rule: nonzero; opacity: 1;" transform=" matrix(1 0 0 1 0 0) " stroke-linecap="round" />
	<path d="M 33.295 44.66 c -0.041 0 -0.081 -0.002 -0.122 -0.007 c -0.548 -0.066 -0.939 -0.565 -0.873 -1.113 c 0.361 -2.982 1.451 -5.021 3.237 -6.061 c 3.031 -1.766 7.496 -0.286 11.046 1.201 c 3.329 1.274 6.171 1.081 8.737 0.679 c 0.739 -0.136 1.261 0.143 1.566 0.402 c 0.745 0.634 1.041 1.807 0.99 3.922 c -0.014 0.543 -0.459 0.976 -1 0.976 c -0.008 0 -0.016 0 -0.024 0 c -0.552 -0.013 -0.988 -0.472 -0.976 -1.024 c 0.039 -1.611 -0.161 -2.143 -0.251 -2.298 c -2.754 0.423 -6.011 0.644 -9.786 -0.8 c -2.908 -1.217 -7.001 -2.663 -9.298 -1.329 c -1.233 0.717 -1.971 2.213 -2.257 4.572 C 34.225 44.288 33.794 44.66 33.295 44.66 z" style="stroke: none; stroke-width: 1; stroke-dasharray: none; stroke-linecap: butt; stroke-linejoin: miter; stroke-miterlimit: 10; fill: rgb(255,255,255); fill-rule: nonzero; opacity: 1;" transform=" matrix(1 0 0 1 0 0) " stroke-linecap="round" />
	<path d="M 45 65.59 c -0.808 0 -1.603 -0.14 -2.362 -0.414 c -4.704 -1.699 -8.274 -5.602 -9.547 -10.438 c -0.141 -0.534 0.178 -1.081 0.712 -1.222 c 0.538 -0.14 1.081 0.179 1.222 0.712 c 1.106 4.201 4.207 7.59 8.294 9.066 c 1.082 0.391 2.281 0.391 3.363 0 c 4.087 -1.477 7.188 -4.865 8.294 -9.066 c 0.142 -0.534 0.69 -0.851 1.222 -0.712 c 0.534 0.141 0.853 0.688 0.712 1.222 c -1.273 4.836 -4.843 8.738 -9.548 10.438 C 46.602 65.45 45.808 65.59 45 65.59 z" style="stroke: none; stroke-width: 1; stroke-dasharray: none; stroke-linecap: butt; stroke-linejoin: miter; stroke-miterlimit: 10; fill: rgb(255,255,255); fill-rule: nonzero; opacity: 1;" transform=" matrix(1 0 0 1 0 0) " stroke-linecap="round" />
	<path d="M 45.011 59.88 c -1.16 0 -2.303 -0.26 -3.422 -0.781 c -0.5 -0.232 -0.718 -0.827 -0.485 -1.328 c 0.233 -0.501 0.829 -0.716 1.329 -0.484 c 1.712 0.796 3.437 0.792 5.275 -0.01 c 0.508 -0.224 1.096 0.011 1.316 0.516 c 0.222 0.506 -0.01 1.096 -0.516 1.316 C 47.332 59.623 46.164 59.88 45.011 59.88 z" style="stroke: none; stroke-width: 1; stroke-dasharray: none; stroke-linecap: butt; stroke-linejoin: miter; stroke-miterlimit: 10; fill: rgb(255,255,255); fill-rule: nonzero; opacity: 1;" transform=" matrix(1 0 0 1 0 0) " stroke-linecap="round" />
	<path d="M 57.453 55.483 H 32.547 c -1.615 0 -2.929 -1.314 -2.929 -2.93 v -6.964 c 0 -1.615 1.314 -2.929 2.929 -2.929 h 24.906 c 1.615 0 2.929 1.314 2.929 2.929 v 6.964 C 60.382 54.169 59.068 55.483 57.453 55.483 z M 32.547 44.66 c -0.512 0 -0.929 0.417 -0.929 0.929 v 6.964 c 0 0.513 0.417 0.93 0.929 0.93 h 24.906 c 0.512 0 0.929 -0.417 0.929 -0.93 v -6.964 c 0 -0.512 -0.417 -0.929 -0.929 -0.929 H 32.547 z" style="stroke: none; stroke-width: 1; stroke-dasharray: none; stroke-linecap: butt; stroke-linejoin: miter; stroke-miterlimit: 10; fill: rgb(255,255,255); fill-rule: nonzero; opacity: 1;" transform=" matrix(1 0 0 1 0 0) " stroke-linecap="round" />
	<path d="M 55.609 48.21 c -0.13 0 -0.26 -0.021 -0.38 -0.07 s -0.229 -0.13 -0.33 -0.22 c -0.18 -0.19 -0.29 -0.44 -0.29 -0.71 c 0 -0.13 0.03 -0.26 0.08 -0.38 c 0.051 -0.12 0.12 -0.23 0.21 -0.32 c 0.37 -0.38 1.051 -0.38 1.42 0 c 0.181 0.18 0.29 0.44 0.29 0.7 c 0 0.27 -0.1 0.52 -0.29 0.71 C 56.13 48.109 55.88 48.21 55.609 48.21 z" style="stroke: none; stroke-width: 1; stroke-dasharray: none; stroke-linecap: butt; stroke-linejoin: miter; stroke-miterlimit: 10; fill: rgb(255,255,255); fill-rule: nonzero; opacity: 1;" transform=" matrix(1 0 0 1 0 0) " stroke-linecap="round" />
	<path d="M 50.488 48.214 H 34.389 c -0.552 0 -1 -0.447 -1 -1 s 0.448 -1 1 -1 h 16.099 c 0.553 0 1 0.447 1 1 S 51.041 48.214 50.488 48.214 z" style="stroke: none; stroke-width: 1; stroke-dasharray: none; stroke-linecap: butt; stroke-linejoin: miter; stroke-miterlimit: 10; fill: rgb(255,255,255); fill-rule: nonzero; opacity: 1;" transform=" matrix(1 0 0 1 0 0) " stroke-linecap="round" />
	<path d="M 82.089 49.955 h -6.566 c -0.446 0 -0.838 -0.295 -0.961 -0.724 l -1.831 -6.366 h -0.82 c -0.553 0 -1 -0.448 -1 -1 s 0.447 -1 1 -1 h 1.573 c 0.446 0 0.838 0.295 0.961 0.724 l 1.831 6.366 h 5.068 l 0.934 -3.132 h -4.438 c -0.553 0 -1 -0.448 -1 -1 s 0.447 -1 1 -1 h 5.78 c 0.315 0 0.613 0.149 0.802 0.402 c 0.188 0.253 0.247 0.581 0.156 0.883 l -1.53 5.133 C 82.921 49.665 82.531 49.955 82.089 49.955 z" style="stroke: none; stroke-width: 1; stroke-dasharray: none; stroke-linecap: butt; stroke-linejoin: miter; stroke-miterlimit: 10; fill: rgb(255,255,255); fill-rule: nonzero; opacity: 1;" transform=" matrix(1 0 0 1 0 0) " stroke-linecap="round" />
	<path d="M 75 53.25 c -0.141 0 -0.271 -0.03 -0.391 -0.08 c -0.119 -0.05 -0.229 -0.12 -0.319 -0.22 C 74.1 52.77 74 52.52 74 52.25 c 0 -0.141 0.02 -0.26 0.069 -0.391 C 74.12 51.74 74.2 51.63 74.29 51.54 c 0.37 -0.38 1.04 -0.37 1.41 0 c 0.1 0.09 0.17 0.2 0.22 0.319 C 75.97 51.99 76 52.12 76 52.25 c 0 0.26 -0.11 0.51 -0.3 0.7 c -0.091 0.1 -0.2 0.17 -0.32 0.22 S 75.13 53.25 75 53.25 z" style="stroke: none; stroke-width: 1; stroke-dasharray: none; stroke-linecap: butt; stroke-linejoin: miter; stroke-miterlimit: 10; fill: rgb(255,255,255); fill-rule: nonzero; opacity: 1;" transform=" matrix(1 0 0 1 0 0) " stroke-linecap="round" />
	<path d="M 82.649 53.25 c -0.13 0 -0.26 -0.03 -0.38 -0.08 s -0.229 -0.12 -0.33 -0.22 c -0.09 -0.091 -0.17 -0.2 -0.21 -0.32 c -0.06 -0.12 -0.08 -0.25 -0.08 -0.38 c 0 -0.271 0.11 -0.53 0.29 -0.71 c 0.37 -0.37 1.04 -0.38 1.42 0 c 0.181 0.18 0.29 0.439 0.29 0.71 c 0 0.13 -0.029 0.26 -0.08 0.38 c -0.05 0.12 -0.119 0.229 -0.21 0.32 c -0.1 0.1 -0.21 0.17 -0.329 0.22 C 82.91 53.22 82.78 53.25 82.649 53.25 z" style="stroke: none; stroke-width: 1; stroke-dasharray: none; stroke-linecap: butt; stroke-linejoin: miter; stroke-miterlimit: 10; fill: rgb(255,255,255); fill-rule: nonzero; opacity: 1;" transform=" matrix(1 0 0 1 0 0) " stroke-linecap="round" />
	<path d="M 77.765 58.718 c -6.706 0 -12.161 -5.456 -12.161 -12.162 c 0 -6.706 5.455 -12.161 12.161 -12.161 s 12.162 5.456 12.162 12.161 C 89.927 53.262 84.471 58.718 77.765 58.718 z M 77.765 36.395 c -5.603 0 -10.161 4.558 -10.161 10.161 c 0 5.604 4.559 10.162 10.161 10.162 c 5.604 0 10.162 -4.559 10.162 -10.162 C 87.927 40.953 83.368 36.395 77.765 36.395 z" style="stroke: none; stroke-width: 1; stroke-dasharray: none; stroke-linecap: butt; stroke-linejoin: miter; stroke-miterlimit: 10; fill: rgb(255,255,255); fill-rule: nonzero; opacity: 1;" transform=" matrix(1 0 0 1 0 0) " stroke-linecap="round" />
	<path d="M 65.057 24.323 c -6.706 0 -12.162 -5.456 -12.162 -12.162 S 58.351 0 65.057 0 s 12.161 5.456 12.161 12.162 S 71.763 24.323 65.057 24.323 z M 65.057 2 c -5.604 0 -10.162 4.559 -10.162 10.162 s 4.559 10.162 10.162 10.162 c 5.603 0 10.161 -4.559 10.161 -10.162 S 70.659 2 65.057 2 z" style="stroke: none; stroke-width: 1; stroke-dasharray: none; stroke-linecap: butt; stroke-linejoin: miter; stroke-miterlimit: 10; fill: rgb(255,255,255); fill-rule: nonzero; opacity: 1;" transform=" matrix(1 0 0 1 0 0) " stroke-linecap="round" />
	<path d="M 63.916 19.327 c -1.938 0 -3.516 -1.393 -3.516 -3.104 s 1.577 -3.104 3.516 -3.104 s 3.516 1.393 3.516 3.104 S 65.854 19.327 63.916 19.327 z M 63.916 15.119 c -0.821 0 -1.516 0.505 -1.516 1.104 s 0.694 1.104 1.516 1.104 s 1.516 -0.505 1.516 -1.104 S 64.737 15.119 63.916 15.119 z" style="stroke: none; stroke-width: 1; stroke-dasharray: none; stroke-linecap: butt; stroke-linejoin: miter; stroke-miterlimit: 10; fill: rgb(255,255,255); fill-rule: nonzero; opacity: 1;" transform=" matrix(1 0 0 1 0 0) " stroke-linecap="round" />
	<path d="M 66.432 17.223 c -0.552 0 -1 -0.448 -1 -1 L 65.431 5.996 c 0 -0.29 0.126 -0.565 0.345 -0.755 c 0.219 -0.19 0.517 -0.274 0.795 -0.235 c 2.36 0.334 3.656 2.912 3.823 4.636 c 0.054 0.549 -0.349 1.038 -0.898 1.091 c -0.559 0.061 -1.039 -0.349 -1.092 -0.899 c -0.056 -0.571 -0.387 -1.535 -0.973 -2.186 l 0.001 8.574 C 67.432 16.775 66.984 17.223 66.432 17.223 z" style="stroke: none; stroke-width: 1; stroke-dasharray: none; stroke-linecap: butt; stroke-linejoin: miter; stroke-miterlimit: 10; fill: rgb(255,255,255); fill-rule: nonzero; opacity: 1;" transform=" matrix(1 0 0 1 0 0) " stroke-linecap="round" />
	<path d="M 21.995 17.779 c -0.173 0 -0.345 -0.044 -0.5 -0.134 c -0.31 -0.179 -0.5 -0.509 -0.5 -0.866 V 7.544 c 0 -0.357 0.19 -0.688 0.5 -0.866 s 0.69 -0.179 1 0 l 8 4.618 c 0.31 0.179 0.5 0.509 0.5 0.866 s -0.19 0.688 -0.5 0.866 l -8 4.617 C 22.34 17.734 22.167 17.779 21.995 17.779 z M 22.995 9.276 v 5.771 l 5 -2.885 L 22.995 9.276 z" style="stroke: none; stroke-width: 1; stroke-dasharray: none; stroke-linecap: butt; stroke-linejoin: miter; stroke-miterlimit: 10; fill: rgb(255,255,255); fill-rule: nonzero; opacity: 1;" transform=" matrix(1 0 0 1 0 0) " stroke-linecap="round" />
	<path d="M 24.944 24.323 c -6.706 0 -12.162 -5.456 -12.162 -12.162 S 18.238 0 24.944 0 s 12.162 5.456 12.162 12.162 S 31.65 24.323 24.944 24.323 z M 24.944 2 c -5.603 0 -10.162 4.559 -10.162 10.162 s 4.559 10.162 10.162 10.162 s 10.162 -4.559 10.162 -10.162 S 30.547 2 24.944 2 z" style="stroke: none; stroke-width: 1; stroke-dasharray: none; stroke-linecap: butt; stroke-linejoin: miter; stroke-miterlimit: 10; fill: rgb(255,255,255); fill-rule: nonzero; opacity: 1;" transform=" matrix(1 0 0 1 0 0) " stroke-linecap="round" />
	<path d="M 6.735 53.079 c -0.458 0 -0.917 -0.122 -1.324 -0.366 c -0.805 -0.482 -1.284 -1.365 -1.249 -2.304 l -0.244 -5.176 c 0.048 -1.397 1.028 -2.485 2.33 -2.67 l 3.047 -0.433 c 0.794 -0.113 1.575 -0.319 2.32 -0.612 l 2.864 -1.128 c 1.224 -0.48 2.612 -0.019 3.303 1.099 l 2.426 4.767 c 0.453 0.728 0.472 1.731 0.01 2.549 c -0.462 0.818 -1.326 1.321 -2.271 1.307 l -3.169 -0.035 h 0 c -1.399 0.008 -2.792 0.35 -4.007 1.059 l -2.739 1.596 C 7.63 52.963 7.183 53.079 6.735 53.079 z M 15.483 42.199 c -0.09 0 -0.183 0.016 -0.272 0.051 l -2.863 1.128 c -0.891 0.351 -1.823 0.597 -2.772 0.732 l -3.047 0.433 c -0.342 0.048 -0.6 0.334 -0.612 0.68 L 6.16 50.4 c -0.011 0.39 0.191 0.545 0.279 0.598 c 0.088 0.053 0.32 0.157 0.585 0.003 l 2.738 -1.596 c 1.527 -0.89 3.263 -1.319 5.038 -1.33 l 3.169 0.035 c 0.313 0.044 0.457 -0.202 0.507 -0.291 c 0.05 -0.089 0.15 -0.324 -0.012 -0.586 l -2.426 -4.767 C 15.937 42.307 15.718 42.199 15.483 42.199 z" style="stroke: none; stroke-width: 1; stroke-dasharray: none; stroke-linecap: butt; stroke-linejoin: miter; stroke-miterlimit: 10; fill: rgb(255,255,255); fill-rule: nonzero; opacity: 1;" transform=" matrix(1 0 0 1 0 0) " stroke-linecap="round" />
	<path d="M 13.93 47.399 c -0.27 0 -0.52 -0.1 -0.71 -0.29 c -0.09 -0.1 -0.16 -0.21 -0.21 -0.329 c -0.05 -0.12 -0.08 -0.25 -0.08 -0.381 c 0 -0.26 0.11 -0.52 0.29 -0.709 c 0.09 -0.09 0.2 -0.16 0.33 -0.21 c 0.24 -0.1 0.52 -0.1 0.76 0 c 0.12 0.05 0.23 0.12 0.33 0.21 c 0.18 0.19 0.29 0.45 0.29 0.709 c 0 0.131 -0.03 0.261 -0.08 0.381 c -0.05 0.119 -0.12 0.229 -0.21 0.329 C 14.45 47.3 14.2 47.399 13.93 47.399 z" style="stroke: none; stroke-width: 1; stroke-dasharray: none; stroke-linecap: butt; stroke-linejoin: miter; stroke-miterlimit: 10; fill: rgb(255,255,255); fill-rule: nonzero; opacity: 1;" transform=" matrix(1 0 0 1 0 0) " stroke-linecap="round" />
	<path d="M 14.98 45.09 c -0.27 0 -0.52 -0.11 -0.71 -0.29 c -0.19 -0.19 -0.29 -0.44 -0.29 -0.71 c 0 -0.26 0.1 -0.52 0.29 -0.71 c 0.37 -0.37 1.04 -0.37 1.42 0 c 0.18 0.19 0.29 0.45 0.29 0.71 c 0 0.27 -0.11 0.52 -0.29 0.71 C 15.5 44.98 15.24 45.09 14.98 45.09 z" style="stroke: none; stroke-width: 1; stroke-dasharray: none; stroke-linecap: butt; stroke-linejoin: miter; stroke-miterlimit: 10; fill: rgb(255,255,255); fill-rule: nonzero; opacity: 1;" transform=" matrix(1 0 0 1 0 0) " stroke-linecap="round" />
	<path d="M 8.937 49.035 c -0.443 0 -0.848 -0.296 -0.966 -0.744 l -0.528 -2 c -0.141 -0.535 0.177 -1.082 0.711 -1.223 c 0.532 -0.143 1.081 0.178 1.222 0.711 l 0.528 2 c 0.141 0.534 -0.177 1.082 -0.711 1.223 C 9.107 49.024 9.021 49.035 8.937 49.035 z" style="stroke: none; stroke-width: 1; stroke-dasharray: none; stroke-linecap: butt; stroke-linejoin: miter; stroke-miterlimit: 10; fill: rgb(255,255,255); fill-rule: nonzero; opacity: 1;" transform=" matrix(1 0 0 1 0 0) " stroke-linecap="round" />
	<path d="M 7.672 48.299 c -0.443 0 -0.848 -0.296 -0.966 -0.744 c -0.141 -0.534 0.177 -1.082 0.711 -1.223 l 2 -0.528 c 0.533 -0.141 1.081 0.177 1.222 0.711 c 0.141 0.534 -0.177 1.082 -0.711 1.223 l -2 0.528 C 7.843 48.288 7.757 48.299 7.672 48.299 z" style="stroke: none; stroke-width: 1; stroke-dasharray: none; stroke-linecap: butt; stroke-linejoin: miter; stroke-miterlimit: 10; fill: rgb(255,255,255); fill-rule: nonzero; opacity: 1;" transform=" matrix(1 0 0 1 0 0) " stroke-linecap="round" />
	<path d="M 12.235 58.803 c -6.706 0 -12.161 -5.455 -12.161 -12.161 S 5.529 34.48 12.235 34.48 c 6.706 0 12.162 5.456 12.162 12.162 S 18.941 58.803 12.235 58.803 z M 12.235 36.48 c -5.603 0 -10.161 4.559 -10.161 10.162 c 0 5.603 4.558 10.161 10.161 10.161 s 10.162 -4.559 10.162 -10.161 C 22.396 41.039 17.838 36.48 12.235 36.48 z" style="stroke: none; stroke-width: 1; stroke-dasharray: none; stroke-linecap: butt; stroke-linejoin: miter; stroke-miterlimit: 10; fill: rgb(255,255,255); fill-rule: nonzero; opacity: 1;" transform=" matrix(1 0 0 1 0 0) " stroke-linecap="round" />
	<path d="M 77.926 36.367 c -0.479 0 -0.902 -0.345 -0.985 -0.833 c -0.846 -5.001 -2.902 -9.804 -5.945 -13.888 c -0.33 -0.443 -0.238 -1.069 0.204 -1.399 c 0.442 -0.331 1.069 -0.239 1.399 0.204 c 3.231 4.337 5.415 9.438 6.314 14.75 c 0.092 0.544 -0.274 1.061 -0.819 1.153 C 78.037 36.362 77.981 36.367 77.926 36.367 z" style="stroke: none; stroke-width: 1; stroke-dasharray: none; stroke-linecap: butt; stroke-linejoin: miter; stroke-miterlimit: 10; fill: rgb(255,255,255); fill-rule: nonzero; opacity: 1;" transform=" matrix(1 0 0 1 0 0) " stroke-linecap="round" />
	<path d="M 35.616 9.923 c -0.433 0 -0.832 -0.284 -0.959 -0.72 c -0.155 -0.53 0.149 -1.085 0.68 -1.24 c 6.249 -1.825 13.069 -1.825 19.32 -0.002 c 0.53 0.155 0.834 0.71 0.68 1.24 c -0.154 0.53 -0.709 0.834 -1.24 0.68 C 48.21 8.163 41.782 8.164 35.897 9.882 C 35.804 9.91 35.709 9.923 35.616 9.923 z" style="stroke: none; stroke-width: 1; stroke-dasharray: none; stroke-linecap: butt; stroke-linejoin: miter; stroke-miterlimit: 10; fill: rgb(255,255,255); fill-rule: nonzero; opacity: 1;" transform=" matrix(1 0 0 1 0 0) " stroke-linecap="round" />
	<path d="M 12.06 36.451 c -0.054 0 -0.11 -0.004 -0.166 -0.014 c -0.544 -0.091 -0.913 -0.606 -0.822 -1.151 c 0.891 -5.347 3.081 -10.478 6.331 -14.839 c 0.33 -0.442 0.955 -0.535 1.399 -0.204 c 0.443 0.33 0.534 0.957 0.204 1.399 c -3.061 4.107 -5.123 8.939 -5.962 13.973 C 12.964 36.104 12.54 36.451 12.06 36.451 z" style="stroke: none; stroke-width: 1; stroke-dasharray: none; stroke-linecap: butt; stroke-linejoin: miter; stroke-miterlimit: 10; fill: rgb(255,255,255); fill-rule: nonzero; opacity: 1;" transform=" matrix(1 0 0 1 0 0) " stroke-linecap="round" />
</g>
</svg>