<svg xmlns="http://www.w3.org/2000/svg" xmlns:xlink="http://www.w3.org/1999/xlink" version="1.1" width="256" height="256" viewBox="0 0 256 256" xml:space="preserve">

<defs>
</defs>
<g style="stroke: none; stroke-width: 0; stroke-dasharray: none; stroke-linecap: butt; stroke-linejoin: miter; stroke-miterlimit: 10; fill: none; fill-rule: nonzero; opacity: 1;" transform="translate(1.4065934065934016 1.4065934065934016) scale(2.81 2.81)" >
	<path d="M 55.568 31.427 c -1.104 0 -2 -0.896 -2 -2 c 0 -4.212 -3.427 -7.638 -7.639 -7.638 c -1.104 0 -2 -0.896 -2 -2 s 0.896 -2 2 -2 c 6.418 0 11.639 5.221 11.639 11.638 C 57.568 30.531 56.673 31.427 55.568 31.427 z" style="stroke: none; stroke-width: 1; stroke-dasharray: none; stroke-linecap: butt; stroke-linejoin: miter; stroke-miterlimit: 10; fill: rgb(255,255,255); fill-rule: nonzero; opacity: 1;" transform=" matrix(1 0 0 1 0 0) " stroke-linecap="round" />
	<path d="M 45.93 90 H 26.282 c -6.417 0 -11.639 -5.221 -11.639 -11.639 V 29.427 c 0 -6.417 5.221 -11.638 11.639 -11.638 h 11.297 c 1.104 0 2 0.896 2 2 s -0.896 2 -2 2 H 26.282 c -4.212 0 -7.639 3.426 -7.639 7.638 v 48.935 c 0 4.212 3.427 7.639 7.639 7.639 H 45.93 c 4.212 0 7.639 -3.427 7.639 -7.639 V 37.778 c 0 -1.104 0.896 -2 2 -2 s 2 0.896 2 2 v 40.583 C 57.568 84.779 52.348 90 45.93 90 z" style="stroke: none; stroke-width: 1; stroke-dasharray: none; stroke-linecap: butt; stroke-linejoin: miter; stroke-miterlimit: 10; fill: rgb(255,255,255); fill-rule: nonzero; opacity: 1;" transform=" matrix(1 0 0 1 0 0) " stroke-linecap="round" />
	<path d="M 32.241 49.185 h -6.489 c -1.104 0 -2 -0.896 -2 -2 s 0.896 -2 2 -2 h 6.489 c 1.104 0 2 0.896 2 2 S 33.345 49.185 32.241 49.185 z" style="stroke: none; stroke-width: 1; stroke-dasharray: none; stroke-linecap: butt; stroke-linejoin: miter; stroke-miterlimit: 10; fill: rgb(255,255,255); fill-rule: nonzero; opacity: 1;" transform=" matrix(1 0 0 1 0 0) " stroke-linecap="round" />
	<path d="M 46.459 49.185 h -6.488 c -1.104 0 -2 -0.896 -2 -2 s 0.896 -2 2 -2 h 6.488 c 1.104 0 2 0.896 2 2 S 47.563 49.185 46.459 49.185 z" style="stroke: none; stroke-width: 1; stroke-dasharray: none; stroke-linecap: butt; stroke-linejoin: miter; stroke-miterlimit: 10; fill: rgb(255,255,255); fill-rule: nonzero; opacity: 1;" transform=" matrix(1 0 0 1 0 0) " stroke-linecap="round" />
	<path d="M 32.241 62.048 h -6.489 c -1.104 0 -2 -0.896 -2 -2 s 0.896 -2 2 -2 h 6.489 c 1.104 0 2 0.896 2 2 S 33.345 62.048 32.241 62.048 z" style="stroke: none; stroke-width: 1; stroke-dasharray: none; stroke-linecap: butt; stroke-linejoin: miter; stroke-miterlimit: 10; fill: rgb(255,255,255); fill-rule: nonzero; opacity: 1;" transform=" matrix(1 0 0 1 0 0) " stroke-linecap="round" />
	<path d="M 46.459 62.048 h -6.488 c -1.104 0 -2 -0.896 -2 -2 s 0.896 -2 2 -2 h 6.488 c 1.104 0 2 0.896 2 2 S 47.563 62.048 46.459 62.048 z" style="stroke: none; stroke-width: 1; stroke-dasharray: none; stroke-linecap: butt; stroke-linejoin: miter; stroke-miterlimit: 10; fill: rgb(255,255,255); fill-rule: nonzero; opacity: 1;" transform=" matrix(1 0 0 1 0 0) " stroke-linecap="round" />
	<path d="M 32.241 74.911 h -6.489 c -1.104 0 -2 -0.896 -2 -2 s 0.896 -2 2 -2 h 6.489 c 1.104 0 2 0.896 2 2 S 33.345 74.911 32.241 74.911 z" style="stroke: none; stroke-width: 1; stroke-dasharray: none; stroke-linecap: butt; stroke-linejoin: miter; stroke-miterlimit: 10; fill: rgb(255,255,255); fill-rule: nonzero; opacity: 1;" transform=" matrix(1 0 0 1 0 0) " stroke-linecap="round" />
	<path d="M 46.459 74.911 h -6.488 c -1.104 0 -2 -0.896 -2 -2 s 0.896 -2 2 -2 h 6.488 c 1.104 0 2 0.896 2 2 S 47.563 74.911 46.459 74.911 z" style="stroke: none; stroke-width: 1; stroke-dasharray: none; stroke-linecap: butt; stroke-linejoin: miter; stroke-miterlimit: 10; fill: rgb(255,255,255); fill-rule: nonzero; opacity: 1;" transform=" matrix(1 0 0 1 0 0) " stroke-linecap="round" />
	<path d="M 63.933 31.427 c -1.104 0 -2 -0.896 -2 -2 c 0 -8.824 -7.179 -16.002 -16.003 -16.002 c -1.104 0 -2 -0.896 -2 -2 s 0.896 -2 2 -2 c 11.029 0 20.003 8.973 20.003 20.002 C 65.933 30.531 65.037 31.427 63.933 31.427 z" style="stroke: none; stroke-width: 1; stroke-dasharray: none; stroke-linecap: butt; stroke-linejoin: miter; stroke-miterlimit: 10; fill: rgb(255,255,255); fill-rule: nonzero; opacity: 1;" transform=" matrix(1 0 0 1 0 0) " stroke-linecap="round" />
	<path d="M 73.356 31.427 c -1.104 0 -2 -0.896 -2 -2 C 71.356 15.406 59.95 4 45.93 4 c -1.104 0 -2 -0.896 -2 -2 s 0.896 -2 2 -2 c 16.226 0 29.427 13.201 29.427 29.427 C 75.356 30.531 74.461 31.427 73.356 31.427 z" style="stroke: none; stroke-width: 1; stroke-dasharray: none; stroke-linecap: butt; stroke-linejoin: miter; stroke-miterlimit: 10; fill: rgb(255,255,255); fill-rule: nonzero; opacity: 1;" transform=" matrix(1 0 0 1 0 0) " stroke-linecap="round" />
	<path d="M 32.241 35.852 h -6.489 c -1.104 0 -2 -0.896 -2 -2 s 0.896 -2 2 -2 h 6.489 c 1.104 0 2 0.896 2 2 S 33.345 35.852 32.241 35.852 z" style="stroke: none; stroke-width: 1; stroke-dasharray: none; stroke-linecap: butt; stroke-linejoin: miter; stroke-miterlimit: 10; fill: rgb(255,255,255); fill-rule: nonzero; opacity: 1;" transform=" matrix(1 0 0 1 0 0) " stroke-linecap="round" />
</g>
</svg>